<?xml version="1.0" encoding="UTF-8" standalone="no"?>
<svg
   width="128"
   height="128"
   viewBox="0 0 33.866666 33.866666"
   version="1.1"
   xmlns="http://www.w3.org/2000/svg"
   xmlns:svg="http://www.w3.org/2000/svg">
  
  <!-- Fundo circular com gradiente -->
  <circle
     cx="16.933332"
     cy="16.933332"
     r="15.5"
     fill="url(#gradientBackground)"
     stroke="#2c5aa0"
     stroke-width="1" />
     
  <!-- Definição do gradiente para o fundo -->
  <defs>
    <linearGradient id="gradientBackground" x1="0%" y1="0%" x2="100%" y2="100%">
      <stop offset="0%" style="stop-color:#4b8fda;stop-opacity:1" />
      <stop offset="100%" style="stop-color:#2c5aa0;stop-opacity:1" />
    </linearGradient>
  </defs>
  
  <!-- Grade cartográfica -->
  <g stroke="#ffffff" stroke-width="0.3" opacity="0.6">
    <!-- Linhas horizontais -->
    <line x1="3.5" y1="6.5" x2="30.5" y2="6.5" />
    <line x1="3.5" y1="13.5" x2="30.5" y2="13.5" />
    <line x1="3.5" y1="20.5" x2="30.5" y2="20.5" />
    <line x1="3.5" y1="27.5" x2="30.5" y2="27.5" />
    
    <!-- Linhas verticais -->
    <line x1="6.5" y1="3.5" x2="6.5" y2="30.5" />
    <line x1="13.5" y1="3.5" x2="13.5" y2="30.5" />
    <line x1="20.5" y1="3.5" x2="20.5" y2="30.5" />
    <line x1="27.5" y1="3.5" x2="27.5" y2="30.5" />
  </g>
  
  <!-- Contorno de mapa -->
  <path
     d="M 8,23 10,19 15,21 19,18 23,22 26,20 28,24 25,27 20,26 15,28 12,25 z"
     fill="#ffcc66"
     stroke="#996600"
     stroke-width="0.7" />
     
  <!-- Rosa dos ventos simplificada -->
  <circle cx="7" cy="7" r="2.5" fill="#ffffff" stroke="#2c5aa0" stroke-width="0.5" />
  <path
     d="M 7,4.5 7,9.5 M 4.5,7 9.5,7 M 5.5,5.5 8.5,8.5 M 5.5,8.5 8.5,5.5"
     stroke="#2c5aa0"
     stroke-width="0.5" />
     
  <!-- Texto "RMC" com buffer branco -->
  <!-- Versão com buffer (contorno branco) -->
  <text x="16.933332" y="19.5" 
        font-family="Arial, sans-serif" 
        font-size="11"
        font-weight="bold"
        text-anchor="middle"
        stroke="#ffffff"
        stroke-width="1.8"
        stroke-linejoin="round"
        fill="#ffffff">RMC</text>
        
  <!-- Texto principal em preto -->
  <text x="16.933332" y="19.5" 
        font-family="Arial, sans-serif" 
        font-size="11"
        font-weight="bold"
        text-anchor="middle"
        fill="#000000">RMC</text>
</svg> 